<svg width="20" height="20" viewBox="0 0 20 20" fill="none" xmlns="http://www.w3.org/2000/svg">
<path d="M17.5638 13.8622C17.1508 14.7782 16.9518 15.1872 16.4198 15.9972C15.6778 17.1272 14.6298 18.5352 13.3328 18.5472C12.1808 18.5572 11.8848 17.7972 10.3198 17.8062C8.75582 17.8142 8.42982 18.5612 7.27682 18.5502C5.97982 18.5382 4.98682 17.2672 4.24382 16.1362C2.16682 12.9762 1.94982 9.26619 3.23082 7.29319C4.14082 5.8922 5.57782 5.0722 6.92782 5.0722C8.30282 5.0722 9.16782 5.8262 10.3038 5.8262C11.4068 5.8262 12.0788 5.0702 13.6688 5.0702C14.8688 5.0702 16.1428 5.72519 17.0498 6.8552C14.0778 8.48419 14.5598 12.7282 17.5638 13.8622ZM12.4628 3.8082C13.0398 3.0662 13.4788 2.0202 13.3198 0.950195C12.3758 1.0152 11.2728 1.6152 10.6278 2.3982C10.0438 3.1082 9.56082 4.1612 9.74782 5.18519C10.7778 5.2162 11.8438 4.60119 12.4628 3.8082Z" fill="#F2F2F2" fill-opacity="0.4"/>
</svg>
