<svg width="20" height="20" viewBox="0 0 20 20" fill="none" xmlns="http://www.w3.org/2000/svg">
<path d="M4.943 18.0501L12.609 13.7231L10.963 11.9001L4.943 18.0501ZM2.143 2.12308C2.054 2.28108 2 2.46308 2 2.66508V17.7901C2 18.0701 2.105 18.3101 2.263 18.5001L9.89 10.7101L2.143 2.12308ZM17.48 9.48208L14.807 7.97308L12.085 10.7541L14.036 12.9171L17.48 10.9741C17.6224 10.9034 17.7446 10.798 17.8355 10.6677C17.9264 10.5373 17.983 10.3861 18 10.2281C17.983 10.0701 17.9264 9.91888 17.8355 9.7885C17.7446 9.65812 17.6224 9.55273 17.48 9.48208ZM13.365 7.15908L4.145 1.95508L11.011 9.56508L13.365 7.15908Z" fill="#F2F2F2" fill-opacity="0.4"/>
</svg>
